<mxfile host="app.diagrams.net" modified="2023-05-12T10:17:19.878Z" agent="Mozilla/5.0 (X11; Ubuntu; Linux x86_64; rv:109.0) Gecko/20100101 Firefox/112.0" version="21.2.9" etag="6zs52aPA7RzxChmjPsKG" type="github">
  <diagram name="Страница 1" id="qNg4hjrfwZIc9TB6e1NP">
    <mxGraphModel>
      <root>
        <mxCell id="0" />
        <mxCell id="1" parent="0" />
      </root>
    </mxGraphModel>
  </diagram>
</mxfile>
